<svg width="1440" height="1024" viewBox="0 0 1440 1024" fill="none" xmlns="http://www.w3.org/2000/svg">
<g clip-path="url(#clip0_1_6392)">
<rect width="1440" height="1024" fill="white"/>
<rect width="1440" height="1070" fill="#4880FF"/>
<path fill-rule="evenodd" clip-rule="evenodd" d="M288.5 1329C535.648 1329 736 1128.65 736 881.5C736 749.376 417.153 858.916 326.095 777C246.823 705.687 403.523 434 288.5 434C41.3527 434 -159 634.353 -159 881.5C-159 1128.65 41.3527 1329 288.5 1329Z" fill="#568AFF"/>
<path opacity="0.541829" fill-rule="evenodd" clip-rule="evenodd" d="M880.471 -259.915C830.505 23.4538 1019.72 293.675 1303.08 343.64C1454.57 370.352 1393.44 -17.3702 1505.77 -105.212C1603.56 -181.685 1883.39 52.9069 1906.64 -78.9738C1956.61 -362.343 1767.4 -632.564 1484.03 -682.529C1200.66 -732.495 930.436 -543.284 880.471 -259.915Z" fill="#568AFF"/>
<path opacity="0.6" fill-rule="evenodd" clip-rule="evenodd" d="M235.513 -284.946C3.26993 -200.417 -116.475 56.3779 -31.9459 288.62C13.2433 412.777 275.396 200.791 388.98 246.623C487.861 286.522 433.534 595.419 541.621 556.079C773.863 471.55 893.608 214.755 809.079 -17.4875C724.55 -249.73 467.755 -369.475 235.513 -284.946Z" fill="#568AFF"/>
<path fill-rule="evenodd" clip-rule="evenodd" d="M2022.38 980.96C2077.52 668.221 1868.7 369.992 1555.96 314.848C1388.77 285.368 1456.24 713.276 1332.27 810.223C1224.34 894.622 915.512 635.715 889.848 781.264C834.703 1094 1043.53 1392.23 1356.26 1447.38C1669 1502.52 1967.23 1293.7 2022.38 980.96Z" fill="#568AFF"/>
</g>
<defs>
<clipPath id="clip0_1_6392">
<rect width="1440" height="1024" fill="white"/>
</clipPath>
</defs>
</svg>
